<mxfile host="app.diagrams.net" agent="Mozilla/5.0 (Windows NT 10.0; Win64; x64) AppleWebKit/537.36 (KHTML, like Gecko) Chrome/130.0.0.0 Safari/537.36" version="24.7.17">
  <diagram name="Page-1" id="9Q7WDuYAnulbc_8zaFwd">
    <mxGraphModel dx="1050" dy="570" grid="1" gridSize="10" guides="1" tooltips="1" connect="1" arrows="1" fold="1" page="1" pageScale="1" pageWidth="1100" pageHeight="850" math="0" shadow="0">
      <root>
        <mxCell id="0" />
        <mxCell id="1" parent="0" />
        <mxCell id="hvQG3eprH4HOvRqOPf5w-11" value="" style="edgeStyle=orthogonalEdgeStyle;rounded=0;orthogonalLoop=1;jettySize=auto;html=1;" edge="1" parent="1" source="hvQG3eprH4HOvRqOPf5w-1" target="hvQG3eprH4HOvRqOPf5w-2">
          <mxGeometry relative="1" as="geometry" />
        </mxCell>
        <mxCell id="hvQG3eprH4HOvRqOPf5w-1" value="Language Design" style="rounded=0;whiteSpace=wrap;html=1;" vertex="1" parent="1">
          <mxGeometry x="190" y="130" width="120" height="60" as="geometry" />
        </mxCell>
        <mxCell id="hvQG3eprH4HOvRqOPf5w-12" value="" style="edgeStyle=orthogonalEdgeStyle;rounded=0;orthogonalLoop=1;jettySize=auto;html=1;" edge="1" parent="1" source="hvQG3eprH4HOvRqOPf5w-2" target="hvQG3eprH4HOvRqOPf5w-3">
          <mxGeometry relative="1" as="geometry" />
        </mxCell>
        <mxCell id="hvQG3eprH4HOvRqOPf5w-2" value="Tokenizer (Lexical Analysis)" style="rounded=0;whiteSpace=wrap;html=1;" vertex="1" parent="1">
          <mxGeometry x="370" y="130" width="120" height="60" as="geometry" />
        </mxCell>
        <mxCell id="hvQG3eprH4HOvRqOPf5w-13" value="" style="edgeStyle=orthogonalEdgeStyle;rounded=0;orthogonalLoop=1;jettySize=auto;html=1;" edge="1" parent="1" source="hvQG3eprH4HOvRqOPf5w-3" target="hvQG3eprH4HOvRqOPf5w-4">
          <mxGeometry relative="1" as="geometry" />
        </mxCell>
        <mxCell id="hvQG3eprH4HOvRqOPf5w-3" value="Parser (Syntax Analysis)" style="whiteSpace=wrap;html=1;" vertex="1" parent="1">
          <mxGeometry x="550" y="130" width="120" height="60" as="geometry" />
        </mxCell>
        <mxCell id="hvQG3eprH4HOvRqOPf5w-10" style="edgeStyle=orthogonalEdgeStyle;rounded=0;orthogonalLoop=1;jettySize=auto;html=1;entryX=1;entryY=0.5;entryDx=0;entryDy=0;" edge="1" parent="1" source="hvQG3eprH4HOvRqOPf5w-4" target="hvQG3eprH4HOvRqOPf5w-5">
          <mxGeometry relative="1" as="geometry" />
        </mxCell>
        <mxCell id="hvQG3eprH4HOvRqOPf5w-4" value="Semantic Analysis" style="whiteSpace=wrap;html=1;" vertex="1" parent="1">
          <mxGeometry x="740" y="130" width="120" height="60" as="geometry" />
        </mxCell>
        <mxCell id="hvQG3eprH4HOvRqOPf5w-14" value="" style="edgeStyle=orthogonalEdgeStyle;rounded=0;orthogonalLoop=1;jettySize=auto;html=1;" edge="1" parent="1" source="hvQG3eprH4HOvRqOPf5w-5" target="hvQG3eprH4HOvRqOPf5w-6">
          <mxGeometry relative="1" as="geometry" />
        </mxCell>
        <mxCell id="hvQG3eprH4HOvRqOPf5w-5" value="&amp;nbsp;Intermediate Representation (IR)" style="whiteSpace=wrap;html=1;" vertex="1" parent="1">
          <mxGeometry x="630" y="300" width="120" height="60" as="geometry" />
        </mxCell>
        <mxCell id="hvQG3eprH4HOvRqOPf5w-15" value="" style="edgeStyle=orthogonalEdgeStyle;rounded=0;orthogonalLoop=1;jettySize=auto;html=1;" edge="1" parent="1" source="hvQG3eprH4HOvRqOPf5w-6" target="hvQG3eprH4HOvRqOPf5w-7">
          <mxGeometry relative="1" as="geometry" />
        </mxCell>
        <mxCell id="hvQG3eprH4HOvRqOPf5w-6" value="Code Generation" style="whiteSpace=wrap;html=1;" vertex="1" parent="1">
          <mxGeometry x="430" y="300" width="120" height="60" as="geometry" />
        </mxCell>
        <mxCell id="hvQG3eprH4HOvRqOPf5w-7" value="Optimization (Optional)" style="whiteSpace=wrap;html=1;" vertex="1" parent="1">
          <mxGeometry x="230" y="300" width="120" height="60" as="geometry" />
        </mxCell>
      </root>
    </mxGraphModel>
  </diagram>
</mxfile>
